PathFileType	4	(x/y/z)	S08_P20_T05
DataRate	CameraRate	NumFrames	NumMarkers	Units	OrigDataRate	OrigDataStartFrame	OrigNumFrames
240	240	10	51	mm	240	49	388
Frame#	Time	Sternum			R.Acromium			L.Acromium			Top.Head			R.ASIS			L.ASIS			R.PSIS			L.PSIS			R.Great.Tro			L.Great.Tro			R.Iliac.Crest			L.Iliac.Crest			V.Sacral			R.Thigh.Upper.Post			R.Thigh.Lower.Ant			R.Thigh.Lower.Post			R.Thigh.Upper.Ant			R.Knee.Lat			R.Knee.Med			R.Shank.Upper.Post			R.Shank.Lower.Ant			R.Shank.Lower.Post			R.Shank.Upper.Ant			R.Ankle.Lat			R.Ankle.Med			R.Heel.Upper			R.Heel.Med			R.Heel.Lat			R.Toe.Lat			R.Toe.Med			R.Toe.Tip			L.Thigh.Upper.Post			L.Thigh.Lower.Ant			L.Thigh.Lower.Post			L.Thigh.Upper.Ant			L.Knee.Lat			L.Knee.Med			L.Shank.Upper.Post			L.Shank.Lower.Ant			L.Shank.Lower.Post			L.Shank.Upper.Ant			L.Ankle.Lat			L.Ankle.Med			L.Heel.Upper			L.Heel.Med			L.Heel.Lat			L.Toe.Lat			L.Toe.Med			L.Toe.Tip			Cervical.Spine			Back			
		X1	Y1	Z1	X2	Y2	Z2	X3	Y3	Z3	X4	Y4	Z4	X5	Y5	Z5	X6	Y6	Z6	X7	Y7	Z7	X8	Y8	Z8	X9	Y9	Z9	X10	Y10	Z10	X11	Y11	Z11	X12	Y12	Z12	X13	Y13	Z13	X14	Y14	Z14	X15	Y15	Z15	X16	Y16	Z16	X17	Y17	Z17	X18	Y18	Z18	X19	Y19	Z19	X20	Y20	Z20	X21	Y21	Z21	X22	Y22	Z22	X23	Y23	Z23	X24	Y24	Z24	X25	Y25	Z25	X26	Y26	Z26	X27	Y27	Z27	X28	Y28	Z28	X29	Y29	Z29	X30	Y30	Z30	X31	Y31	Z31	X32	Y32	Z32	X33	Y33	Z33	X34	Y34	Z34	X35	Y35	Z35	X36	Y36	Z36	X37	Y37	Z37	X38	Y38	Z38	X39	Y39	Z39	X40	Y40	Z40	X41	Y41	Z41	X42	Y42	Z42	X43	Y43	Z43	X44	Y44	Z44	X45	Y45	Z45	X46	Y46	Z46	X47	Y47	Z47	X48	Y48	Z48	X49	Y49	Z49	X50	Y50	Z50	X51	Y51	Z51	

49	0.2	-1069.1	1227.3	286.44	-1185.1	1463.3	465.76	-1212.5	1490.3	129.94	-1184.9	1782.8	317.04	-1100.3	1007.8	395.25	-1099	1022.1	166.05	NaN	NaN	NaN	NaN	NaN	NaN	-1166.7	891.74	462.16	-1182.5	915.18	94.871	-1199.5	1074.2	444.72	-1196	1103	138.13	-1319.4	996.23	272.51	-1155.9	689.13	448.91	-1061.7	603.49	430.98	-1133.3	601.54	433.09	-1077.8	696.51	445.17	-1088.9	505.77	427.29	-1101.1	504.93	292.32	-1255.9	424.26	439.1	-1263	335.22	416.97	-1308.9	371.3	432.54	-1207.6	384.56	422.72	-1447.1	270.92	407.08	-1412	256.67	328.37	-1507.2	287.56	359.18	-1511.6	263.76	329.23	-1525.9	265.39	389.13	-1421.9	116.17	424.78	-1390.4	124.53	313.21	-1338.8	82.358	358.61	-1162.5	698.37	115.48	-1058.6	627.67	140.37	-1129.4	615.29	136.18	-1064.8	718.81	98.562	-1097.2	521.31	158.67	-1102.1	525.04	283.55	-1156.4	342.19	156.81	-1093.9	254.37	185.76	-1165.7	268.71	175.33	-1094.6	326.93	168.63	-1153.3	99.542	196.16	-1133.4	103.64	282.07	-1206.4	74.231	243.75	-1195.4	40.467	273.68	-1198.2	49.049	210.06	-1021.4	40.836	183.22	-1006.1	44.779	299.48	-942.28	61.605	253.04	-1264.3	1519.8	294.8	-1312.7	1236.7	304.19
50	0.20417	-1063.9	1228	286.45	-1180	1464	465.72	-1207.2	1491	129.87	-1179.4	1783.5	316.9	-1095.1	1008.7	394.94	-1093.7	1022.8	165.78	NaN	NaN	NaN	NaN	NaN	NaN	-1161	892.68	461.87	-1178.1	915.82	94.678	-1194.4	1075	444.41	-1190.7	1103.7	137.84	-1314.2	997	272.2	-1147.4	690.22	448.45	-1052.2	605.65	430.58	-1123.8	602.89	432.54	-1069.4	698.45	444.86	-1078.3	507.77	426.98	-1090.6	506.61	291.99	-1244.4	425.55	438.76	-1251.6	336.53	416.85	-1298.2	372.64	432.1	-1196.2	386.24	422.8	-1435	271.36	407.02	-1400.2	257.23	328.21	-1495.5	287.09	359.22	-1500.1	263.09	329.37	-1514.1	264.99	389.37	-1408.1	117.26	425.39	-1377.3	125.18	313.58	-1325.3	83.694	359.14	-1159.4	698.96	115.41	-1056.9	627.11	140.59	-1127	615.61	136.06	-1062.1	718.61	98.668	-1095.5	521.34	158.56	-1100.1	525.04	283.42	-1155.6	342.41	156.86	-1093.2	254.34	185.65	-1165.1	268.93	175.46	-1093.4	326.98	168.32	-1153.2	99.695	196.24	-1133.3	103.79	282.08	-1206.3	74.386	243.74	-1195.4	40.613	273.66	-1198.2	49.16	210.04	-1021.3	40.768	183.19	-1005.9	44.83	299.39	-942.19	61.409	252.99	-1259	1520.6	294.69	-1307.6	1237.5	303.86
51	0.20833	-1058.7	1228.8	286.45	-1174.9	1464.7	465.69	-1201.9	1491.7	129.8	-1173.9	1784.3	316.77	-1089.9	1009.7	394.64	-1088.4	1023.5	165.52	NaN	NaN	NaN	NaN	NaN	NaN	-1155.4	893.67	461.6	-1173.7	916.47	94.496	-1189.3	1075.9	444.09	-1185.4	1104.4	137.54	-1309.1	997.79	271.9	-1139	691.37	448.01	-1042.8	607.89	430.16	-1114.5	604.31	432.02	-1061.1	700.45	444.56	-1067.7	509.85	426.66	-1080.3	508.36	291.65	-1233.1	426.74	438.38	-1240.1	337.72	416.71	-1287.5	373.79	431.64	-1184.7	387.87	422.82	-1422.7	271.45	406.93	-1388.3	257.45	328.02	-1483.5	286.19	359.2	-1488.3	261.98	329.45	-1502	264.14	389.54	-1394	118.06	426.02	-1364	125.54	313.96	-1311.4	84.876	359.71	-1156.4	699.57	115.34	-1055.1	626.62	140.78	-1124.7	615.96	135.94	-1059.8	718.29	99.02	-1093.9	521.39	158.46	-1098	525.04	283.3	-1154.8	342.66	156.9	-1092.6	254.34	185.56	-1164.5	269.15	175.61	-1092.3	327.05	168.03	-1153.1	99.859	196.32	-1133.1	103.94	282.11	-1206.3	74.551	243.73	-1195.3	40.766	273.65	-1198.1	49.276	210.03	-1021.3	40.698	183.15	-1005.6	44.876	299.31	-942.09	61.211	252.95	-1253.7	1521.3	294.59	-1302.5	1238.3	303.53
52	0.2125	-1053.5	1229.6	286.44	-1169.8	1465.4	465.64	-1196.6	1492.5	129.75	-1168.3	1785	316.65	-1084.8	1010.7	394.35	-1083.1	1024.1	165.25	NaN	NaN	NaN	NaN	NaN	NaN	-1149.8	894.69	461.36	-1169.3	917.13	94.321	-1184.1	1076.8	443.79	-1180	1105.1	137.23	-1304	998.61	271.62	-1130.6	692.58	447.6	-1033.5	610.19	429.73	-1105.2	605.8	431.52	-1052.8	702.49	444.25	-1057.3	511.99	426.3	-1070	510.16	291.31	-1221.8	427.84	437.95	-1228.6	338.79	416.55	-1276.8	374.73	431.14	-1173.2	389.44	422.77	-1410.3	271.2	406.81	-1376.1	257.35	327.81	-1471.4	284.87	359.13	-1476.3	260.44	329.47	-1489.8	262.86	389.67	-1379.5	118.56	426.68	-1350.2	125.64	314.35	-1297.1	85.906	360.33	-1153.3	700.18	115.28	-1053.2	626.2	140.92	-1122.2	616.32	135.82	-1057.7	717.85	99.606	-1092.2	521.44	158.37	-1096	525.04	283.18	-1153.9	342.93	156.93	-1092	254.35	185.46	-1163.9	269.39	175.77	-1091.3	327.14	167.77	-1153	100.03	196.42	-1133	104.11	282.14	-1206.2	74.725	243.73	-1195.3	40.925	273.65	-1198.1	49.398	210.02	-1021.3	40.628	183.13	-1005.4	44.914	299.22	-941.99	61.01	252.91	-1248.4	1522.1	294.49	-1297.4	1239.1	303.19
53	0.21667	-1048.3	1230.4	286.43	-1164.7	1466.1	465.59	-1191.3	1493.3	129.7	-1162.6	1785.8	316.53	-1079.7	1011.7	394.08	-1077.9	1024.8	164.99	NaN	NaN	NaN	NaN	NaN	NaN	-1144.2	895.76	461.14	-1165.1	917.79	94.15	-1179	1077.8	443.49	-1174.7	1105.7	136.92	-1298.8	999.45	271.36	-1122.3	693.83	447.23	-1024.3	612.54	429.29	-1095.9	607.36	431.07	-1044.7	704.58	443.94	-1046.9	514.17	425.93	-1059.8	512.03	290.96	-1210.7	428.82	437.48	-1216.9	339.74	416.37	-1266	375.47	430.61	-1161.6	390.94	422.65	-1397.8	270.63	406.65	-1363.8	256.92	327.58	-1459.1	283.13	359.01	-1464.2	258.49	329.43	-1477.4	261.16	389.73	-1364.8	118.78	427.36	-1336.2	125.47	314.77	-1282.5	86.785	360.99	-1150.3	700.8	115.22	-1051.1	625.85	141.04	-1119.8	616.69	135.71	-1055.9	717.3	100.4	-1090.6	521.5	158.3	-1094	525.04	283.07	-1153.1	343.23	156.97	-1091.4	254.39	185.38	-1163.4	269.64	175.93	-1090.3	327.24	167.53	-1153	100.22	196.52	-1132.9	104.27	282.18	-1206.2	74.905	243.74	-1195.3	41.089	273.65	-1198	49.524	210.01	-1021.2	40.558	183.11	-1005.1	44.945	299.13	-941.88	60.808	252.87	-1243.2	1522.9	294.4	-1292.2	1239.9	302.86
54	0.22083	-1043.1	1231.2	286.41	-1159.6	1466.8	465.54	-1186.1	1494.1	129.65	-1156.9	1786.5	316.42	-1074.6	1012.7	393.82	-1072.7	1025.4	164.74	NaN	NaN	NaN	NaN	NaN	NaN	-1138.6	896.84	460.95	-1160.8	918.44	93.982	-1173.8	1078.8	443.2	-1169.4	1106.4	136.6	-1293.7	1000.3	271.13	-1114	695.12	446.9	-1015.2	614.93	428.83	-1086.8	608.96	430.67	-1036.6	706.7	443.63	-1036.7	516.39	425.52	-1049.7	513.95	290.61	-1199.6	429.69	436.97	-1205.2	340.55	416.18	-1255.2	375.98	430.07	-1150	392.36	422.46	-1385.1	269.72	406.46	-1351.3	256.18	327.33	-1446.6	280.99	358.84	-1451.8	256.14	329.33	-1464.7	259.04	389.75	-1349.8	118.72	428.06	-1321.9	125.04	315.2	-1267.5	87.519	361.69	-1147.2	701.43	115.17	-1049	625.54	141.13	-1117.4	617.08	135.59	-1054.4	716.66	101.38	-1089	521.57	158.23	-1091.9	525.03	282.97	-1152.3	343.54	156.99	-1090.8	254.43	185.3	-1162.8	269.9	176.09	-1089.3	327.34	167.32	-1152.9	100.42	196.63	-1132.7	104.45	282.23	-1206.2	75.092	243.75	-1195.3	41.258	273.65	-1197.9	49.655	210.01	-1021.2	40.49	183.1	-1004.9	44.968	299.05	-941.77	60.604	252.84	-1237.9	1523.6	294.31	-1287.1	1240.7	302.52
55	0.225	-1037.9	1232	286.38	-1154.6	1467.6	465.48	-1180.8	1494.9	129.62	-1151.2	1787.2	316.32	-1069.5	1013.7	393.56	-1067.5	1026.1	164.48	NaN	NaN	NaN	NaN	NaN	NaN	-1133.1	897.95	460.79	-1156.6	919.09	93.816	-1168.7	1079.7	442.92	-1164.1	1107.1	136.29	-1288.6	1001.2	270.93	-1105.8	696.44	446.62	-1006.2	617.36	428.36	-1077.7	610.6	430.32	-1028.6	708.85	443.32	-1026.7	518.63	425.09	-1039.7	515.91	290.25	-1188.6	430.42	436.44	-1193.5	341.24	415.98	-1244.3	376.29	429.52	-1138.4	393.7	422.22	-1372.4	268.5	406.24	-1338.5	255.14	327.07	-1434	278.46	358.62	-1439.3	253.4	329.19	-1451.9	256.52	389.71	-1334.5	118.39	428.78	-1307.2	124.38	315.65	-1252.3	88.11	362.42	-1144.1	702.05	115.11	-1046.8	625.29	141.21	-1114.9	617.47	135.48	-1053	715.96	102.51	-1087.5	521.65	158.17	-1089.9	525.03	282.87	-1151.4	343.87	157.01	-1090.2	254.49	185.24	-1162.3	270.16	176.24	-1088.4	327.46	167.13	-1152.8	100.62	196.74	-1132.6	104.63	282.28	-1206.2	75.285	243.76	-1195.3	41.429	273.65	-1197.9	49.788	210.02	-1021.2	40.424	183.09	-1004.7	44.981	298.97	-941.65	60.398	252.8	-1232.7	1524.4	294.22	-1282	1241.5	302.18
56	0.22917	-1032.8	1232.9	286.34	-1149.5	1468.3	465.4	-1175.6	1495.7	129.59	-1145.4	1787.9	316.21	-1064.4	1014.8	393.32	-1062.3	1026.7	164.24	NaN	NaN	NaN	NaN	NaN	NaN	-1127.5	899.07	460.65	-1152.4	919.73	93.652	-1163.5	1080.7	442.66	-1158.8	1107.7	135.99	-1283.5	1002	270.76	-1097.7	697.79	446.4	-997.25	619.8	427.89	-1068.7	612.28	430.02	-1020.7	711.01	443	-1016.7	520.88	424.63	-1029.9	517.92	289.88	-1177.7	431.03	435.88	-1181.7	341.79	415.76	-1233.3	376.38	428.96	-1126.8	394.94	421.93	-1359.5	266.97	405.99	-1325.7	253.8	326.8	-1421.2	275.56	358.36	-1426.6	250.29	328.99	-1438.8	253.62	389.63	-1319	117.81	429.51	-1292.3	123.5	316.12	-1236.8	88.564	363.18	-1141	702.68	115.06	-1044.4	625.08	141.27	-1112.5	617.87	135.36	-1051.7	715.22	103.73	-1085.9	521.73	158.12	-1087.9	525.04	282.79	-1150.6	344.21	157.03	-1089.6	254.56	185.18	-1161.7	270.44	176.38	-1087.5	327.58	166.98	-1152.7	100.83	196.85	-1132.5	104.82	282.33	-1206.2	75.483	243.78	-1195.3	41.601	273.66	-1197.8	49.925	210.03	-1021.2	40.362	183.08	-1004.5	44.98	298.89	-941.53	60.193	252.77	-1227.5	1525.1	294.13	-1276.9	1242.3	301.84
57	0.23333	-1027.6	1233.7	286.29	-1144.5	1469	465.32	-1170.3	1496.5	129.57	-1139.6	1788.6	316.12	-1059.3	1015.8	393.09	-1057.2	1027.4	163.99	NaN	NaN	NaN	NaN	NaN	NaN	-1122	900.19	460.54	-1148.3	920.35	93.492	-1158.3	1081.7	442.41	-1153.5	1108.3	135.69	-1278.3	1002.8	270.61	-1089.7	699.15	446.24	-988.42	622.26	427.4	-1059.8	613.98	429.79	-1012.8	713.18	442.67	-1006.9	523.13	424.14	-1020.1	519.97	289.5	-1166.8	431.49	435.29	-1169.8	342.21	415.55	-1222.3	376.27	428.4	-1115.3	396.08	421.59	-1346.5	265.14	405.72	-1312.6	252.19	326.51	-1408.2	272.31	358.05	-1413.8	246.83	328.75	-1425.6	250.35	389.5	-1303.2	117	430.24	-1277.1	122.41	316.61	-1221	88.888	363.96	-1137.9	703.3	115.01	-1042	624.91	141.31	-1110	618.27	135.25	-1050.4	714.46	105.01	-1084.4	521.81	158.07	-1085.9	525.04	282.71	-1149.7	344.57	157.04	-1089.1	254.64	185.13	-1161.2	270.73	176.51	-1086.6	327.7	166.85	-1152.7	101.05	196.96	-1132.4	105.01	282.39	-1206.2	75.686	243.8	-1195.3	41.773	273.68	-1197.8	50.064	210.04	-1021.1	40.303	183.09	-1004.3	44.961	298.83	-941.42	59.989	252.75	-1222.3	1525.8	294.05	-1271.8	1243.1	301.5
58	0.2375	-1022.5	1234.5	286.23	-1139.5	1469.7	465.23	-1165	1497.4	129.55	-1133.8	1789.2	316.03	-1054.2	1016.8	392.87	-1052	1028	163.75	NaN	NaN	NaN	NaN	NaN	NaN	-1116.4	901.32	460.46	-1144.1	920.94	93.341	-1153	1082.7	442.18	-1148.3	1108.9	135.41	-1273.2	1003.7	270.49	-1081.7	700.52	446.14	-979.7	624.72	426.9	-1051	615.69	429.61	-1005	715.35	442.33	-997.2	525.36	423.63	-1010.6	522.05	289.12	-1156.1	431.81	434.68	-1158	342.5	415.33	-1211.2	375.94	427.84	-1103.8	397.12	421.22	-1333.4	263.02	405.42	-1299.4	250.31	326.22	-1395.1	268.73	357.71	-1400.7	243.03	328.47	-1412.1	246.72	389.32	-1287.1	115.96	430.96	-1261.6	121.13	317.11	-1204.9	89.086	364.75	-1134.8	703.92	114.96	-1039.6	624.77	141.36	-1107.5	618.68	135.14	-1049.1	713.72	106.3	-1082.9	521.89	158.04	-1084	525.05	282.65	-1148.8	344.93	157.04	-1088.5	254.73	185.09	-1160.6	271.03	176.62	-1085.8	327.83	166.75	-1152.6	101.26	197.07	-1132.3	105.21	282.46	-1206.2	75.893	243.82	-1195.3	41.941	273.69	-1197.7	50.204	210.05	-1021.1	40.248	183.09	-1004.1	44.919	298.78	-941.3	59.785	252.72	-1217.1	1526.5	293.96	-1266.7	1243.8	301.16
